<svg xmlns="http://www.w3.org/2000/svg" width="385" height="505" viewBox="0 0 385 505" version="1.1"><path d="M 53.179 70.750 C 46.210 84.783, 44.715 114.539, 49.968 134.632 C 56.782 160.697, 71.562 186.353, 92.956 209.250 C 96.939 213.512, 99.853 217, 99.432 217 C 97.812 217, 85.382 209.641, 80.070 205.536 C 64.922 193.832, 46.688 171.353, 34.415 149.251 C 32.812 146.364, 31.163 144.002, 30.750 144.001 C 29.350 143.999, 30.013 157.454, 31.961 168.588 C 35.848 190.800, 45.765 214.193, 58.471 231.123 C 67.605 243.293, 83.781 258.428, 97.219 267.377 C 103.515 271.570, 109.164 275, 109.774 275 C 110.383 275, 111.178 275.479, 111.539 276.064 C 113.200 278.751, 91.746 272.263, 78.500 266.071 C 66.996 260.694, 59.508 255.636, 51.250 247.662 C 47.263 243.812, 44 241.252, 44 241.973 C 44 244.384, 51.309 260.404, 56.196 268.708 C 72.020 295.591, 94.588 313.483, 121.492 320.473 C 126.842 321.863, 132.632 323.056, 134.359 323.125 C 140.028 323.351, 129.251 324.844, 121.360 324.926 C 108.152 325.063, 94.758 321.528, 85.601 315.487 L 82.702 313.575 83.979 316.037 C 86.021 319.974, 103.219 336.397, 111.194 342.025 C 137.007 360.242, 164.629 364.765, 190.636 355.035 L 196.034 353.015 195.374 355.758 C 188.662 383.627, 152.525 424.432, 104.254 458.648 C 99.010 462.365, 95.185 465.562, 95.754 465.751 C 97.501 466.334, 132.214 451.886, 148 444.006 C 151.025 442.496, 154.567 440.930, 155.871 440.525 C 158.184 439.806, 158.166 439.898, 155.134 444.305 C 151.684 449.319, 144.364 456, 142.320 456 C 141.594 456, 141 456.450, 141 457 C 141 458.556, 144.414 458.184, 149.167 456.109 C 154.436 453.810, 160.914 448.315, 166.119 441.731 C 170.551 436.124, 171.244 437.201, 167.412 443.741 C 165.988 446.170, 165.079 448.413, 165.392 448.725 C 167.173 450.506, 181.768 437.254, 193.173 423.500 C 196.968 418.924, 201.453 414.669, 203.654 413.557 C 213.986 408.339, 239.267 392.786, 245.499 387.815 C 246.050 387.376, 248.975 385.125, 252 382.814 C 275.656 364.738, 298.926 340.013, 315.014 315.857 C 324.095 302.222, 328 295.058, 328 292.033 C 328 288.461, 335.128 282.409, 340.993 281.002 C 346.050 279.789, 355.517 280.110, 359.475 281.629 C 361.116 282.258, 361.238 281.832, 360.782 277.087 C 360.156 270.570, 357.577 266.977, 352.051 264.923 C 348.670 263.667, 347.190 262.276, 344.765 258.076 C 340.923 251.420, 332.642 242.951, 327.728 240.651 C 325.653 239.680, 321.467 238.363, 318.426 237.725 C 307.612 235.457, 291.069 240.819, 274.601 251.932 C 266.187 257.609, 251.376 269.772, 246.054 275.373 C 244.158 277.368, 242.307 279, 241.939 279 C 241.571 279, 239.757 275.530, 237.908 271.288 C 229.607 252.250, 210.965 232.649, 187.760 218.561 C 179.453 213.518, 163.626 206.213, 152 202.057 C 140.747 198.034, 138.525 196.593, 128.226 186.645 C 103.117 162.389, 79.133 123.559, 58.497 73.750 C 56.958 70.037, 55.552 67, 55.370 67 C 55.189 67, 54.203 68.688, 53.179 70.750 M 58.441 135.746 C 59.390 141.816, 66.998 160.368, 72.586 170.238 C 78.596 180.853, 86.992 191.823, 94.599 199 L 99.368 203.500 94.934 198.153 C 79.819 179.927, 69.521 162.397, 60.975 140.348 C 59.303 136.031, 58.162 133.961, 58.441 135.746 M 46.031 194.500 C 46.031 195.050, 46.467 196.175, 47 197 C 47.533 197.825, 47.969 198.050, 47.969 197.500 C 47.969 196.950, 47.533 195.825, 47 195 C 46.467 194.175, 46.031 193.950, 46.031 194.500 M 48 199.529 C 48 199.819, 49.399 202.857, 51.110 206.279 C 59.340 222.745, 72.679 238.955, 87.557 250.573 C 95.236 256.570, 108.135 265, 109.631 265 C 109.998 265, 107.194 262.672, 103.399 259.827 C 81.787 243.624, 62.497 222.848, 51.950 204.412 C 49.131 199.485, 48 198.087, 48 199.529 M 165 220.430 C 165 220.639, 167.137 222.049, 169.750 223.564 C 194.567 237.956, 216.339 258.083, 228.012 277.427 C 231.908 283.884, 231.470 279.525, 227.491 272.240 C 217.360 253.697, 201.406 239.049, 176.707 225.613 C 169.835 221.875, 165 219.734, 165 220.430 M 319.709 252.624 C 318.432 253.901, 318.966 257.773, 320.500 258.362 C 323.172 259.387, 325.128 257.915, 324.804 255.122 C 324.505 252.547, 321.339 250.995, 319.709 252.624 M 78.928 288.813 C 89.831 299.284, 103.808 307.807, 118.465 312.919 C 126.072 315.573, 129.103 315.538, 122.500 312.873 C 103.586 305.239, 92.186 298.457, 74.928 284.570 C 73.513 283.431, 75.313 285.341, 78.928 288.813 M 301.260 318.250 C 282.993 341.568, 254.411 367.550, 225.239 387.355 C 219.045 391.560, 214.232 395, 214.542 395 C 214.852 395, 219.904 392.230, 225.770 388.844 C 259.282 369.500, 286.387 344.621, 304.443 316.632 C 307.506 311.884, 309.849 308, 309.651 308 C 309.453 308, 305.677 312.613, 301.260 318.250 M 128.750 315.662 C 129.438 315.940, 130.563 315.940, 131.250 315.662 C 131.938 315.385, 131.375 315.158, 130 315.158 C 128.625 315.158, 128.063 315.385, 128.750 315.662 M 122 342.540 C 122 343.011, 132.865 348.079, 137.500 349.769 C 150.747 354.601, 168.815 355.651, 181.249 352.312 L 187.997 350.499 172.536 350.856 C 155.698 351.244, 143.676 349.492, 129.056 344.519 C 125.175 343.199, 122 342.309, 122 342.540" stroke="none" fill="#242c3c" fill-rule="evenodd"/><path d="M 146.664 42.669 C 144.367 44.967, 147.698 74.116, 151.435 84.421 C 153.957 91.372, 159.186 101.214, 163.433 107 C 164.846 108.925, 172.471 117.025, 180.378 125 C 190.047 134.752, 195.833 141.465, 198.048 145.500 L 201.341 151.500 198.383 148.767 C 196.756 147.263, 190.010 143.622, 183.392 140.675 C 176.774 137.727, 169.591 134.117, 167.429 132.651 C 160.821 128.168, 151.164 117.967, 145.184 109.151 L 139.500 100.772 139.200 106.969 C 138.496 121.520, 145.238 137.500, 156.964 149.071 C 163.862 155.879, 172.131 162.246, 187.406 172.513 C 199.062 180.348, 208.133 189.193, 210.854 195.377 C 212.034 198.060, 213 200.550, 213 200.911 C 213 201.272, 209.724 198.355, 205.720 194.428 C 199.322 188.154, 196.485 186.314, 182.338 179.260 C 163.794 170.015, 160.496 167.925, 153.112 160.742 L 147.723 155.500 148.440 159.500 C 148.835 161.700, 150.726 166.863, 152.642 170.974 C 159.018 184.650, 168.358 194.251, 187.450 206.751 C 194.628 211.451, 205 218.233, 210.500 221.823 C 224.191 230.760, 233.573 240.396, 238.853 250.947 C 241.134 255.503, 243 259.892, 243 260.699 C 243 263.197, 245.392 261.535, 247.718 257.422 C 248.938 255.265, 251.266 250.125, 252.891 246 C 267.660 208.518, 265.859 176.008, 247.609 150.654 C 241.726 142.481, 236.237 137.364, 219.500 124.454 C 192.504 103.631, 174.470 85.017, 159.393 62.417 C 155.327 56.321, 151.986 50.921, 151.969 50.417 C 151.910 48.693, 147.330 42.003, 146.664 42.669 M 232.206 149.500 C 244.596 165.750, 251.845 187.291, 252.131 208.708 L 252.262 218.500 253.193 210.500 C 254.285 201.111, 252.902 186.600, 250.100 178.067 C 246.381 166.737, 237.647 152.514, 230.409 146 C 228.581 144.355, 229.195 145.551, 232.206 149.500" stroke="none" fill="#fc9b04" fill-rule="evenodd"/></svg>