<?xml version="1.0" encoding="UTF-8"?>
<svg version="1.1" xmlns="http://www.w3.org/2000/svg" width="440" height="440">
<path d="M0 0 C3.375 -0.125 3.375 -0.125 7 0 C7.99 0.99 7.99 0.99 9 2 C12.33474385 3.13255451 15.21560861 4 18.75 4 C21 4 21 4 24 6 C24.73046875 8.1640625 24.73046875 8.1640625 25.1875 10.625 C25.34605469 11.44226562 25.50460938 12.25953125 25.66796875 13.1015625 C25.77753906 13.72804688 25.88710937 14.35453125 26 15 C24.0636296 15.50435694 22.12585854 16.00333874 20.1875 16.5 C18.56908203 16.91765625 18.56908203 16.91765625 16.91796875 17.34375 C14 18 14 18 11 18 C11.66 38.13 12.32 58.26 13 79 C16.3 79.33 19.6 79.66 23 80 C25.39606571 80.61004127 27.77688973 81.28812321 30.125 82.0625 C31.24132812 82.42472656 32.35765625 82.78695312 33.5078125 83.16015625 C34.74144531 83.57587891 34.74144531 83.57587891 36 84 C35.44271087 87.34373475 34.64826111 90.03312999 33 93 C30.70763814 92.52417032 28.41612791 92.04423615 26.125 91.5625 C24.84882813 91.29566406 23.57265625 91.02882813 22.2578125 90.75390625 C19 90 19 90 17 89 C15.84207575 111.74718201 15.84207575 111.74718201 23 133 C23.91183124 134.90614721 24.79228762 136.824906 25.67138672 138.74633789 C26.5483885 140.65676014 27.44800082 142.55514765 28.3515625 144.453125 C29.80794952 147.58677291 31.14704698 150.73301936 32.4375 153.9375 C34.657819 159.37546162 37.25144336 164.56674941 39.91772461 169.79443359 C42.29074706 174.48272181 44.44510625 179.22728256 46.5 184.0625 C49.02625285 189.98347257 51.85879598 195.64075514 54.94921875 201.28540039 C57.48400087 205.9448905 59.77723051 210.68463396 62 215.5 C64.81038473 221.57647043 67.80044848 227.50935739 70.9934082 233.39306641 C73.82860024 238.62930083 76.50213736 243.93698337 79.12304688 249.28344727 C81.18367526 253.46103226 83.39449231 257.53079251 85.67211914 261.59375 C88.07804405 265.95352126 90.33934919 270.38886684 92.625 274.8125 C96.56660703 282.41215844 100.59087215 289.95472785 104.75 297.4375 C108.4274321 304.05674712 111.93914876 310.72863036 115.27636719 317.52563477 C117.68676476 322.42673435 120.2708307 327.21087746 122.96875 331.9609375 C124 334 124 334 124 336 C121.30000274 334.99714388 118.90221511 333.94037507 116.4375 332.4375 C114.17911494 330.94966862 114.17911494 330.94966862 112.1171875 330.53125 C109.80587807 329.95129044 107.84204529 329.07662878 105.6875 328.0625 C101.83688976 326.30932481 98.09555328 325.04567318 94 324 C98.75237573 327.35345093 103.50503937 330.6938881 108.375 333.875 C112.1771708 336.40067898 115.8873714 339.04366082 119.5625 341.75 C120.59503906 342.50796875 121.62757813 343.2659375 122.69140625 344.046875 C123.83416016 345.01367188 123.83416016 345.01367188 125 346 C125 346.66 125 347.32 125 348 C125.59296875 348.28359375 126.1859375 348.5671875 126.796875 348.859375 C138.47829083 354.90720022 143.3357447 368.45544382 148.83935547 379.72460938 C151.94736985 386.04153776 155.3951659 392.15539647 158.93896484 398.23730469 C159.35227051 398.96079102 159.76557617 399.68427734 160.19140625 400.4296875 C160.56467041 401.07147949 160.93793457 401.71327148 161.32250977 402.37451172 C161.54608154 402.91092285 161.76965332 403.44733398 162 404 C161.67 404.66 161.34 405.32 161 406 C159.72769531 405.25556641 159.72769531 405.25556641 158.4296875 404.49609375 C151.09287828 400.23624925 143.68719247 396.25584744 136.05859375 392.54296875 C134.25242972 391.6318132 132.46499626 390.6782032 130.73144531 389.63549805 C119.6475627 382.99884006 108.00832992 377.54697556 96.1875 372.375 C95.07322128 371.88475845 95.07322128 371.88475845 93.93643188 371.38461304 C83.12440492 366.63752577 72.34173113 362.32577078 61 359 C59.81019531 358.61714844 58.62039063 358.23429687 57.39453125 357.83984375 C50.98909345 355.78332229 44.63188509 354.13775004 38 353 C36.96230436 349.88691308 37.21164905 348.26265684 37.72460938 345.10546875 C39.98235408 327.84412982 38.00798521 309.55209323 30 294 C29.18015625 292.93845703 29.18015625 292.93845703 28.34375 291.85546875 C27 290 27 290 27 287 C26.34 287 25.68 287 25 287 C24.195625 285.9171875 24.195625 285.9171875 23.375 284.8125 C21.2032507 282.24069162 19.66875603 281.02424933 16.8515625 279.32421875 C16.13049316 278.88553467 15.40942383 278.44685059 14.66650391 277.99487305 C14.11655762 277.66656494 13.56661133 277.33825684 13 277 C13.00507568 278.29486328 13.01015137 279.58972656 13.01538086 280.92382812 C13.05975482 297.78554312 12.83375797 314.64094513 12.5625 331.5 C12.5511842 332.20932301 12.53986839 332.91864601 12.52820969 333.64946365 C12.3614642 344.09980962 12.18406144 354.54994572 12 365 C11.98066406 366.11654968 11.96132812 367.23309937 11.94140625 368.38348389 C11.84427091 373.94589161 11.73858638 379.50795475 11.61422729 385.06982422 C11.5805935 386.60931942 11.54947039 388.14887223 11.52127075 389.68847656 C11.37169567 397.6658142 10.94401307 405.56219629 10.09765625 413.49609375 C10.02237198 414.21864853 9.94708771 414.94120331 9.86952209 415.68565369 C9.02530782 423.00135126 7.13804809 429.96312327 5 437 C4.34 437 3.68 437 3 437 C-3.94930907 419.47876647 -3.64444518 400.81513583 -4.07341385 382.22770691 C-4.14310935 379.30240258 -4.22273335 376.37740117 -4.30234623 373.45235252 C-4.72528637 357.88010856 -5.04848127 342.30623472 -5.30859375 326.73046875 C-5.32576195 325.70454715 -5.32576195 325.70454715 -5.34327698 324.65789986 C-5.46201357 317.50394702 -5.56921542 310.3499418 -5.65869141 303.19555664 C-5.67489029 302.01669388 -5.69108917 300.83783112 -5.70777893 299.62324524 C-5.73747694 297.44139954 -5.76358973 295.25950059 -5.78526306 293.07756042 C-5.85721661 287.95445204 -6.12515425 283.05074673 -7 278 C-15.07842794 282.45367245 -20.54462173 289.53853712 -24 298 C-24.27457031 298.64710938 -24.54914063 299.29421875 -24.83203125 299.9609375 C-31.51588244 316.62117741 -30.96296224 334.59259685 -28 352 C-29.65322266 352.45439453 -29.65322266 352.45439453 -31.33984375 352.91796875 C-35.39847151 354.03643845 -39.45354791 355.16730393 -43.50732422 356.30322266 C-45.08110404 356.74314113 -46.65556342 357.18064223 -48.23095703 357.61474609 C-56.49359305 359.89626289 -64.56573988 362.4660724 -72.5625 365.5625 C-73.28824219 365.84335449 -74.01398438 366.12420898 -74.76171875 366.41357422 C-79.03922767 368.11135855 -83.14039152 370.03003534 -87.23803711 372.12280273 C-89.281782 373.14028582 -91.35653391 373.96619524 -93.5 374.75 C-100.90614338 377.66076045 -107.93285671 381.36119773 -115 385 C-115.88381348 385.4542334 -116.76762695 385.9084668 -117.67822266 386.37646484 C-120.49680751 387.82861151 -123.31160817 389.28782013 -126.125 390.75 C-127.01356689 391.20963135 -127.90213379 391.6692627 -128.81762695 392.14282227 C-133.40260135 394.54069362 -137.71365995 397.09097095 -142 400 C-143.73266067 400.92892646 -145.48193375 401.8278727 -147.25 402.6875 C-148.52617187 403.31205078 -148.52617187 403.31205078 -149.828125 403.94921875 C-150.54484375 404.29597656 -151.2615625 404.64273437 -152 405 C-152.66 405.33 -153.32 405.66 -154 406 C-153.41429444 402.2164767 -152.33317766 399.44114458 -150.4375 396.125 C-148.29563323 392.32063664 -146.2011764 388.50186144 -144.17578125 384.6340332 C-141.10688562 378.78357185 -137.88664524 373.07230024 -134.4375 367.4375 C-130.89149675 361.6362477 -127.79307053 355.71135349 -124.80859375 349.59765625 C-120.88084274 341.66110191 -116.33728968 334.02336696 -111.89453125 326.3671875 C-108.51754127 320.53435198 -105.28026819 314.67552221 -102.3125 308.625 C-100.15790617 304.23781799 -97.89025192 300.10567714 -95.2265625 296.015625 C-93.76672762 293.61666068 -92.54632609 291.14779525 -91.3125 288.625 C-88.7509751 283.39659185 -85.97940234 278.32144002 -83.125 273.25 C-79.56189013 266.9045811 -76.18406285 260.50329693 -72.97143555 253.97412109 C-70.54801147 249.05905895 -68.0178601 244.20936775 -65.4375 239.375 C-61.49458604 231.97785242 -57.71900959 224.51273142 -54 217 C-52.64825612 214.29045364 -51.29282242 211.58275775 -49.9375 208.875 C-49.26946666 207.5390948 -48.60149687 206.20315781 -47.93359375 204.8671875 C-45.2890625 199.578125 -42.64453125 194.2890625 -40 189 C-36.86651341 190.45943211 -34.17361417 192.22624643 -31.375 194.25 C-23.92403642 199.520461 -16.21984194 204.04229832 -8 208 C-8 207.34 -8 206.68 -8 206 C-9.6405786 204.80977631 -11.28555263 203.62319969 -12.98046875 202.51171875 C-15.58511718 200.56201093 -17.72698186 198.33113508 -20 196 C-21.25498089 194.74196191 -22.51161543 193.48557219 -23.76953125 192.23046875 C-27.51302083 188.48697917 -31.25651042 184.74348958 -35 181 C-33.01387604 173.65309898 -33.01387604 173.65309898 -31.125 170.25 C-29.48190714 167.10932804 -28.22717038 163.97283792 -27.0625 160.625 C-25.77799788 156.97219708 -24.34722651 153.56059853 -22.5625 150.125 C-20.11493434 145.40202161 -18.22925798 140.56014598 -16.40625 135.56640625 C-15 132 -15 132 -13.74145508 129.70922852 C-9.3675321 121.43325485 -9.40950403 113.89195322 -9.6875 104.8125 C-9.71264495 103.36917979 -9.73544707 101.92581678 -9.75585938 100.48242188 C-9.80600419 96.98632547 -9.90388853 93.49632176 -10 90 C-15.28 90.99 -20.56 91.98 -26 93 C-27.88343932 89.23312136 -28.22057835 87.97041037 -28 84 C-13.13915522 78.83998445 -13.13915522 78.83998445 -6 79 C-3.93047925 58.6865488 -3.40629788 38.40077835 -3 18 C-3.60255615 17.94013916 -4.2051123 17.88027832 -4.82592773 17.81860352 C-5.62458252 17.73537842 -6.4232373 17.65215332 -7.24609375 17.56640625 C-8.0342749 17.48592041 -8.82245605 17.40543457 -9.63452148 17.32250977 C-12.89348172 16.87818254 -15.86984856 15.9989845 -19 15 C-18.46823628 10.48000837 -16.97021532 7.45187186 -14 4 C-10.8125 3.6875 -10.8125 3.6875 -8 4 C-7.67 3.67 -7.34 3.34 -7 3 C-5.00041636 2.95919217 -2.99954746 2.95745644 -1 3 C-0.67 2.01 -0.34 1.02 0 0 Z " fill="#C70000" transform="translate(211,1)"/>
<path d="M0 0 C3.375 -0.125 3.375 -0.125 7 0 C7.66 0.66 8.32 1.32 9 2 C12.33474385 3.13255451 15.21560861 4 18.75 4 C21 4 21 4 24 6 C24.73046875 8.1640625 24.73046875 8.1640625 25.1875 10.625 C25.34605469 11.44226562 25.50460938 12.25953125 25.66796875 13.1015625 C25.77753906 13.72804688 25.88710937 14.35453125 26 15 C24.0636296 15.50435694 22.12585854 16.00333874 20.1875 16.5 C18.56908203 16.91765625 18.56908203 16.91765625 16.91796875 17.34375 C14 18 14 18 11 18 C11.66 38.13 12.32 58.26 13 79 C16.3 79.33 19.6 79.66 23 80 C25.39606571 80.61004127 27.77688973 81.28812321 30.125 82.0625 C31.24132812 82.42472656 32.35765625 82.78695312 33.5078125 83.16015625 C34.74144531 83.57587891 34.74144531 83.57587891 36 84 C35.44271087 87.34373475 34.64826111 90.03312999 33 93 C30.70763814 92.52417032 28.41612791 92.04423615 26.125 91.5625 C24.84882813 91.29566406 23.57265625 91.02882813 22.2578125 90.75390625 C19 90 19 90 17 89 C17.01160156 90.18335937 17.02320313 91.36671875 17.03515625 92.5859375 C17.09072938 100.79860372 17.05306401 108.83875394 16 117 C12.97744595 115.48872298 12.81817077 113.25552168 11.6875 110.125 C9.39247228 103.94345213 6.80845484 97.96348496 4 92 C1.67934502 94.32065498 1.05182078 96.12637843 -0.09375 99.19140625 C-0.48433594 100.21814453 -0.87492187 101.24488281 -1.27734375 102.30273438 C-2.0937325 104.47933633 -2.90883291 106.65642193 -3.72265625 108.83398438 C-4.11324219 109.85943359 -4.50382812 110.88488281 -4.90625 111.94140625 C-5.26009766 112.88701416 -5.61394531 113.83262207 -5.97851562 114.80688477 C-7 117 -7 117 -9 118 C-9.495 104.14 -9.495 104.14 -10 90 C-15.28 90.99 -20.56 91.98 -26 93 C-27.88343932 89.23312136 -28.22057835 87.97041037 -28 84 C-13.13915522 78.83998445 -13.13915522 78.83998445 -6 79 C-3.93047925 58.6865488 -3.40629788 38.40077835 -3 18 C-3.60255615 17.94013916 -4.2051123 17.88027832 -4.82592773 17.81860352 C-6.02390991 17.69376587 -6.02390991 17.69376587 -7.24609375 17.56640625 C-8.0342749 17.48592041 -8.82245605 17.40543457 -9.63452148 17.32250977 C-12.89348172 16.87818254 -15.86984856 15.9989845 -19 15 C-18.46823628 10.48000837 -16.97021532 7.45187186 -14 4 C-10.8125 3.6875 -10.8125 3.6875 -8 4 C-7.67 3.67 -7.34 3.34 -7 3 C-5.00041636 2.95919217 -2.99954746 2.95745644 -1 3 C-0.67 2.01 -0.34 1.02 0 0 Z " fill="#484747" transform="translate(211,1)"/>
<path d="M0 0 C1.24910156 -0.00515625 2.49820313 -0.0103125 3.78515625 -0.015625 C6.9375 0.25 6.9375 0.25 8.9375 2.25 C9.17149353 4.17930603 9.17149353 4.17930603 9.14819336 6.58569336 C9.14404922 7.49855606 9.13990509 8.41141876 9.13563538 9.35194397 C9.12052414 10.3585759 9.1054129 11.36520782 9.08984375 12.40234375 C9.08154037 13.46347885 9.073237 14.52461395 9.06468201 15.61790466 C9.03333313 19.16214419 8.98622769 22.70595933 8.9375 26.25 C8.9088095 28.72932704 8.88032998 31.20865652 8.85205078 33.68798828 C8.75386939 41.72981459 8.62976153 49.77113831 8.5 57.8125 C8.47703804 59.24903357 8.45407868 60.68556718 8.43112183 62.12210083 C8.27519119 71.83155587 8.10883688 81.54080506 7.9375 91.25 C7.91816406 92.36548218 7.89882812 93.48096436 7.87890625 94.63024902 C7.78172197 100.19339809 7.67604334 105.75620443 7.55172729 111.31881714 C7.51809847 112.85873971 7.48697477 114.39871974 7.45877075 115.93875122 C7.30919531 123.91599582 6.88150319 131.81228892 6.03515625 139.74609375 C5.95987198 140.46864853 5.88458771 141.19120331 5.80702209 141.93565369 C4.96280782 149.25135126 3.07554809 156.21312327 0.9375 163.25 C0.2775 163.25 -0.3825 163.25 -1.0625 163.25 C-7.94859201 145.89897095 -7.70902399 127.43695276 -8.13672256 109.01585007 C-8.2053743 106.12139378 -8.28211329 103.22717042 -8.35842609 100.33290768 C-8.57989194 91.89783462 -8.77297041 83.46226648 -8.95709229 75.02630615 C-9.04512609 71.0028194 -9.13844106 66.97947344 -9.23313522 62.95613861 C-9.43849018 54.21848675 -9.62353696 45.48065696 -9.78729248 36.74212646 C-9.84439132 33.70783118 -9.90779058 30.67376622 -9.97637939 27.63970947 C-10.05619403 24.07617821 -10.12100671 20.51268855 -10.17395973 16.9486599 C-10.20627916 15.00995818 -10.25343786 13.07152185 -10.3009491 11.13313293 C-10.3148317 9.985681 -10.32871429 8.83822906 -10.34301758 7.65600586 C-10.3614119 6.65452011 -10.37980621 5.65303436 -10.39875793 4.62120056 C-10.28779282 3.83870438 -10.1768277 3.05620819 -10.0625 2.25 C-6.37155532 -0.21062979 -4.39205805 -0.01816777 0 0 Z " fill="#484747" transform="translate(215.0625,274.75)"/>
<path d="M0 0 C3.96 0 7.92 0 12 0 C12.66 1.65 13.32 3.3 14 5 C14.268125 4.360625 14.53625 3.72125 14.8125 3.0625 C16 1 16 1 19 0 C19 3.63 19 7.26 19 11 C15.7 11 12.4 11 9 11 C9 8.36 9 5.72 9 3 C8.01 3 7.02 3 6 3 C6 5.64 6 8.28 6 11 C5.01 11 4.02 11 3 11 C3 8.36 3 5.72 3 3 C2.01 3 1.02 3 0 3 C0 2.01 0 1.02 0 0 Z " fill="#C71C1C" transform="translate(370,367)"/>
<path d="M0 0 C3.93673644 1.31224548 6.22719294 2.91910327 9 6 C5.65626525 5.44271087 2.96687001 4.64826111 0 3 C0 2.01 0 1.02 0 0 Z " fill="#563F3F" transform="translate(204,208)"/>
<path d="" fill="#C80000" transform="translate(0,0)"/>
<path d="" fill="#C80000" transform="translate(0,0)"/>
<path d="" fill="#C80000" transform="translate(0,0)"/>
<path d="" fill="#C80000" transform="translate(0,0)"/>
<path d="" fill="#C80000" transform="translate(0,0)"/>
<path d="" fill="#C80000" transform="translate(0,0)"/>
<path d="" fill="#C80000" transform="translate(0,0)"/>
<path d="" fill="#C80000" transform="translate(0,0)"/>
<path d="" fill="#C80000" transform="translate(0,0)"/>
<path d="" fill="#C80000" transform="translate(0,0)"/>
<path d="" fill="#C80000" transform="translate(0,0)"/>
<path d="" fill="#C80000" transform="translate(0,0)"/>
<path d="" fill="#484848" transform="translate(0,0)"/>
<path d="" fill="#484848" transform="translate(0,0)"/>
</svg>
