<?xml version="1.0" encoding="UTF-8"?>
<svg version="1.1" xmlns="http://www.w3.org/2000/svg" width="539" height="536">
<path d="M0 0 C1.48992462 0.00323273 1.48992462 0.00323273 3.00994873 0.00653076 C17.83854304 0.05812975 32.34030978 0.48305508 46.9375 3.3125 C47.99420898 3.51117676 49.05091797 3.70985352 50.13964844 3.91455078 C93.49301547 12.26617343 133.15280857 30.19877381 167.9375 57.3125 C168.81535156 57.99570312 169.69320313 58.67890625 170.59765625 59.3828125 C199.91879754 82.78790613 223.5485222 112.1029023 240.9375 145.3125 C241.32615234 146.04114258 241.71480469 146.76978516 242.11523438 147.52050781 C261.63582286 184.53418405 270.41361009 226.31733543 270.25 267.9375 C270.24726578 269.38616959 270.24726578 269.38616959 270.24447632 270.86410522 C270.19791083 285.54133546 269.63290578 299.85160713 266.9375 314.3125 C266.78716309 315.19325195 266.63682617 316.07400391 266.48193359 316.98144531 C258.07181939 365.5208168 234.86504014 412.60896949 200.9375 448.3125 C199.74273226 449.68118963 198.55469728 451.05579976 197.375 452.4375 C191.11327282 459.62525726 184.2568726 466.21302284 176.9375 472.3125 C176.18436523 472.94430176 176.18436523 472.94430176 175.41601562 473.58886719 C136.63759753 505.94925441 89.91225408 527.00728734 39.9375 534.3125 C38.72473389 534.49127686 37.51196777 534.67005371 36.26245117 534.85424805 C24.4707332 536.47559584 12.76373749 536.67146853 0.875 536.625 C-0.11828308 536.62284485 -1.11156616 536.6206897 -2.13494873 536.61846924 C-16.96354304 536.56687025 -31.46530978 536.14194492 -46.0625 533.3125 C-47.11920898 533.11382324 -48.17591797 532.91514648 -49.26464844 532.71044922 C-92.61801547 524.35882657 -132.27780857 506.42622619 -167.0625 479.3125 C-167.94035156 478.62929688 -168.81820312 477.94609375 -169.72265625 477.2421875 C-199.04379754 453.83709387 -222.6735222 424.5220977 -240.0625 391.3125 C-240.64547852 390.21953613 -240.64547852 390.21953613 -241.24023438 389.10449219 C-260.76082286 352.09081595 -269.53861009 310.30766457 -269.375 268.6875 C-269.37317719 267.72172028 -269.37135437 266.75594055 -269.36947632 265.76089478 C-269.32291083 251.08366454 -268.75790578 236.77339287 -266.0625 222.3125 C-265.91216309 221.43174805 -265.76182617 220.55099609 -265.60693359 219.64355469 C-257.19681939 171.1041832 -233.99004014 124.01603051 -200.0625 88.3125 C-198.86773226 86.94381037 -197.67969728 85.56920024 -196.5 84.1875 C-190.23827282 76.99974274 -183.3818726 70.41197716 -176.0625 64.3125 C-175.56041016 63.89129883 -175.05832031 63.47009766 -174.54101562 63.03613281 C-135.76259753 30.67574559 -89.03725408 9.61771266 -39.0625 2.3125 C-37.84973389 2.13372314 -36.63696777 1.95494629 -35.38745117 1.77075195 C-23.5957332 0.14940416 -11.88873749 -0.04646853 0 0 Z " fill="#D09BE4" transform="translate(269.0625,-0.31250000000000006)"/>
<path d="M0 0 C1.02222656 0.5465625 2.04445313 1.093125 3.09765625 1.65625 C26.40034408 14.61855423 43.09819769 35.28750132 51.3125 60.625 C58.81895606 87.46138582 55.45217843 115.30784547 42.08105469 139.78613281 C39.15443101 144.94256501 35.87860839 149.53044484 32 154 C31.35804688 154.78503906 30.71609375 155.57007813 30.0546875 156.37890625 C14.85141425 174.30306051 -7.50829989 187.14290134 -31 190 C-32.40081833 190.04209356 -33.80192486 190.07506663 -35.203125 190.1015625 C-48.41635996 190.55482316 -55.60917279 194.95618352 -65.70556641 203.18896484 C-69.54840243 206.22218017 -73.61976411 208.90554711 -77.6875 211.625 C-83.96851744 215.88162011 -90.14116117 220.24940405 -96.23388672 224.77050781 C-100.52769685 227.94662581 -104.87353655 231.03873724 -109.2565918 234.09057617 C-110.95909695 235.27919115 -112.65592305 236.47598259 -114.34692383 237.6809082 C-118.54705888 240.66335535 -122.75487654 243.48418071 -127.20703125 246.078125 C-135.50682676 250.77167262 -135.50682676 250.77167262 -140.88037109 258.27539062 C-141.92604722 263.35352462 -141.87774464 268.42447058 -141.88769531 273.58886719 C-142.60766806 289.04636899 -153.60826138 305.12626994 -164.53125 315.375 C-182.80550793 330.91862169 -203.26480869 336.65804279 -227 335 C-247.92307789 332.42910256 -266.16623396 320.35676064 -279 304 C-285.00345646 295.3872314 -291 284.70818489 -291 274 C-291.91946159 273.74095886 -291.91946159 273.74095886 -292.85749817 273.47668457 C-298.87391576 271.7338886 -304.61893141 269.6522736 -310.38671875 267.21875 C-311.26716354 266.85235916 -312.14760834 266.48596832 -313.05473328 266.10847473 C-314.94910618 265.31977635 -316.84260291 264.52897072 -318.73529053 263.73623657 C-323.81517404 261.60903732 -328.90188248 259.4982812 -333.98828125 257.38671875 C-335.04293579 256.94853317 -336.09759033 256.5103476 -337.1842041 256.05888367 C-349.21684925 251.06701072 -361.29359092 246.18490413 -373.375 241.3125 C-374.41852631 240.89145996 -375.46205261 240.47041992 -376.53720093 240.03662109 C-382.35715935 237.68865652 -388.17808909 235.34311889 -394 233 C-394.495 233.99 -394.495 233.99 -395 235 C-400.38322479 213.67344473 -405.22287928 192.49706516 -405.09765625 170.3984375 C-405.09553383 168.95472275 -405.09553383 168.95472275 -405.09336853 167.48184204 C-405.08782807 164.44619468 -405.07528716 161.41062459 -405.0625 158.375 C-405.05747729 156.30078232 -405.05291574 154.22656348 -405.04882812 152.15234375 C-405.03787824 147.10153331 -405.02065564 142.0507797 -405 137 C-387.21628163 144.03543082 -369.53300373 151.30062186 -351.86181641 158.61328125 C-349.84798846 159.44663075 -347.83415383 160.27996409 -345.8203125 161.11328125 C-344.32547836 161.73186508 -344.32547836 161.73186508 -342.80044556 162.36294556 C-336.38878811 165.0150774 -329.9737324 167.65876826 -323.5546875 170.29296875 C-322.73023636 170.63135773 -321.90578522 170.9697467 -321.05635071 171.31838989 C-317.03722354 172.96708022 -313.01668625 174.61221918 -308.99389648 176.25195312 C-301.86172529 179.16224913 -294.74252213 182.09473582 -287.66348267 185.13243103 C-284.50855845 186.4853583 -281.3481266 187.82514546 -278.18737793 189.16439819 C-276.70446365 189.79753927 -275.22446033 190.43754859 -273.74768066 191.08486938 C-271.722783 191.97222835 -269.68923584 192.83592416 -267.65234375 193.6953125 C-266.50757568 194.19047363 -265.36280762 194.68563477 -264.18334961 195.19580078 C-258.54774081 196.61950623 -254.47348859 193.80625587 -249.625 191.125 C-244.89091192 188.73162296 -240.30220001 187.00293807 -235.1875 185.6875 C-234.17163818 185.41957642 -234.17163818 185.41957642 -233.13525391 185.14624023 C-228.34377761 184.00711527 -224.43140137 184.23021515 -219.5 184.6875 C-215.01617393 184.51722812 -213.15106106 184.14884961 -209.96679688 180.97070312 C-205.3928205 175.28658009 -201.56802487 169.12242544 -197.77929688 162.89794922 C-195.48743457 159.16518227 -193.01728368 155.58247203 -190.5 152 C-189.63157076 150.73652968 -188.76441989 149.4721799 -187.8984375 148.20703125 C-184.33075175 143.01755507 -180.72547658 137.85424965 -177.125 132.6875 C-171.51808971 124.64055156 -165.94496605 116.57197056 -160.42431641 108.46557617 C-159.94269043 107.75892822 -159.46106445 107.05228027 -158.96484375 106.32421875 C-158.49216064 105.61958496 -158.01947754 104.91495117 -157.5324707 104.18896484 C-156.44931424 102.64179568 -155.30843027 101.13429661 -154.12963867 99.65869141 C-149.09937603 93.17839668 -147.91862221 88.09428442 -147.4375 80 C-145.39046317 57.6846699 -137.20447631 38.62424915 -122 22 C-121.23042969 21.14921875 -120.46085937 20.2984375 -119.66796875 19.421875 C-89.54922438 -12.30255364 -38.58153141 -21.35856827 0 0 Z " fill="#261757" transform="translate(405,109)"/>
<path d="M0 0 C9.98537142 7.16341863 17.88347123 17.72537136 20.59765625 29.859375 C22.63048184 45.72725631 20.73211625 59.83425832 11 73 C3.34819846 82.38828048 -7.27966856 89.76745446 -19.4765625 91.78515625 C-36.68997343 93.25069433 -50.61107423 90.51054391 -64.25 79.12109375 C-74.17290393 69.81837132 -79.30695745 58.02071358 -80.23828125 44.5546875 C-80.54046906 29.57253394 -75.90079638 16.81272858 -65.73828125 5.65234375 C-47.1037183 -12.0609599 -21.43216115 -13.21359529 0 0 Z " fill="#1F135C" transform="translate(388,157)"/>
<path d="M0 0 C3.21837527 2.17623471 6.03078238 4.47279308 8.625 7.375 C8.625 8.035 8.625 8.695 8.625 9.375 C9.19605469 9.43429688 9.76710938 9.49359375 10.35546875 9.5546875 C17.50646108 12.13938352 22.45455377 23.48539346 25.5625 30.0625 C31.8342331 43.62901485 33.7265232 62.34791633 28.7890625 76.67578125 C28.40492188 77.56652344 28.02078125 78.45726562 27.625 79.375 C27.36686523 79.98005371 27.10873047 80.58510742 26.84277344 81.20849609 C22.75089344 90.59081895 18.08071575 98.22886414 10.625 105.375 C9.96242188 106.06851563 9.29984375 106.76203125 8.6171875 107.4765625 C-3.259673 119.17278634 -20.10246681 124.97606338 -36.5 124.875 C-37.59731445 124.86855469 -38.69462891 124.86210937 -39.82519531 124.85546875 C-58.01328772 124.4492698 -72.93054275 117.24171924 -86.1640625 104.71484375 C-100.68847173 89.343605 -105.23313205 71.46750162 -104.72265625 50.890625 C-104.40616081 44.17956045 -103.10845887 38.55499396 -100.375 32.375 C-99.93929688 31.3540625 -99.50359375 30.333125 -99.0546875 29.28125 C-90.52221979 10.81754938 -76.00618137 -0.66471681 -57.2578125 -7.64453125 C-38.49861958 -14.02469036 -16.62624227 -10.11557184 0 0 Z M-68.375 17.375 C-68.98601562 17.81328125 -69.59703125 18.2515625 -70.2265625 18.703125 C-78.86732273 25.32643901 -83.192541 35.24588319 -86.375 45.375 C-86.705 46.365 -87.035 47.355 -87.375 48.375 C-88.39039087 64.13308519 -85.64694081 78.33214858 -75.1875 90.5625 C-67.68613017 98.4606365 -59.80217698 103.2768292 -49.375 106.375 C-48.76398438 106.56835938 -48.15296875 106.76171875 -47.5234375 106.9609375 C-34.48584257 109.47363761 -20.46831626 106.97106499 -9.10546875 100.28125 C2.91625974 91.88839807 10.30814371 80.66062293 13.625 66.375 C15.28647542 50.91006867 12.44169241 36.75420713 2.625 24.375 C-7.99408545 12.72529274 -22.00568138 6.60349524 -37.6875 5.875 C-48.96840291 6.17293501 -59.5743218 10.40629971 -68.375 17.375 Z " fill="#E19CF0" transform="translate(395.375,141.625)"/>
<path d="M0 0 C12.65622749 9.79490979 20.3942988 23.21830028 23 39 C24.31884414 54.32886061 20.45635221 69.4614966 10.9296875 81.6484375 C1.57689799 92.50028038 -10.73490722 101.92442743 -25.51953125 103.22094727 C-36.76527608 103.6872101 -47.68451938 104.03116999 -58 99 C-58.90234375 98.61070312 -59.8046875 98.22140625 -60.734375 97.8203125 C-71.39410363 92.73134601 -80.5772415 83.4581771 -86 73 C-86 72.34 -86 71.68 -86 71 C-77.78409681 73.59629373 -69.96015381 76.90579325 -62.05859375 80.328125 C-47.59727088 86.47557595 -36.1885536 89.0965586 -21 84 C-17.8254553 82.56355443 -14.91354489 80.90617016 -12 79 C-11.13375 78.443125 -10.2675 77.88625 -9.375 77.3125 C-0.38731903 68.56133695 3.7745083 58.34717523 4.3125 45.9375 C4.16625723 35.17403211 0.39861926 24.89097342 -7 17 C-12.28020367 12.43276093 -17.86558693 9.3696355 -24.25 6.625 C-25.10174805 6.24996338 -25.95349609 5.87492676 -26.83105469 5.48852539 C-36.12802958 1.43279238 -45.55252136 -2.31146312 -55 -6 C-54 -8 -54 -8 -51.515625 -8.8515625 C-32.90344805 -13.25970967 -16.01581339 -10.52642391 0 0 Z " fill="#F2EDF7" transform="translate(223,322)"/>
<path d="M0 0 C0.99 0.495 0.99 0.495 2 1 C-2.61106415 4.10418044 -7.22124312 7.15857699 -12 10 C-14.00224561 11.32995876 -16.00180803 12.6639586 -18 14 C-19.21818815 14.80163571 -20.43695784 15.60238826 -21.65625 16.40234375 C-22.9375257 17.24735687 -24.21877539 18.09240942 -25.5 18.9375 C-26.13808594 19.35451172 -26.77617188 19.77152344 -27.43359375 20.20117188 C-31.50856465 22.89698596 -35.31567516 25.78701247 -39 29 C-39.6175415 29.53181885 -40.23508301 30.0636377 -40.87133789 30.61157227 C-54.38299407 42.32233155 -67.81564741 54.51567476 -78.99609375 68.49609375 C-80.56407504 70.45530624 -82.16407891 72.35960884 -83.8125 74.25 C-85.82912666 76.7851878 -87.3457568 79.34654958 -88.88671875 82.1875 C-90.8776195 85.42882613 -93.44368375 88.19657318 -96 91 C-96 87.06910715 -94.20291776 85.01232255 -92 81.9375 C-91.38378784 81.06532837 -91.38378784 81.06532837 -90.75512695 80.17553711 C-87.03209325 74.95295812 -83.11123029 69.92332516 -79 65 C-78.56316895 64.47293457 -78.12633789 63.94586914 -77.67626953 63.40283203 C-68.28567313 52.1038137 -58.35107237 41.37191103 -47 32 C-46.50226074 31.58314941 -46.00452148 31.16629883 -45.49169922 30.73681641 C-31.65093871 19.18478044 -16.39753787 7.68634588 0 0 Z " fill="#812DAB" transform="translate(140,32)"/>
<path d="M0 0 C1.97265625 1.69921875 1.97265625 1.69921875 3 3 C-1.1340118 2.06308611 -4.99760343 0.53848309 -8.953125 -0.96484375 C-16.20334363 -3.42805905 -22.44383458 -4.31889524 -30.0625 -4.25 C-30.92166016 -4.25773438 -31.78082031 -4.26546875 -32.66601562 -4.2734375 C-37.80349978 -4.25773854 -42.08704151 -3.6592267 -47 -2 C-48.55074219 -1.53980469 -48.55074219 -1.53980469 -50.1328125 -1.0703125 C-55.55730263 0.64342981 -59.72124561 2.12237883 -64 6 C-64.60328125 6.13148438 -65.2065625 6.26296875 -65.828125 6.3984375 C-73.69373276 8.57704109 -79.75315815 16.75065285 -84.40625 22.99609375 C-86 25 -86 25 -88 26 C-84.2803269 14.94043721 -72.8999138 6.39922365 -63 1 C-43.16367479 -8.52672057 -20.0986736 -9.72974658 0 0 Z " fill="#C177E1" transform="translate(389,138)"/>
<path d="M0 0 C5.10863896 -0.0246501 10.21724359 -0.04283607 15.32592773 -0.05493164 C17.06519168 -0.05997204 18.80445136 -0.0668043 20.54370117 -0.07543945 C23.03825937 -0.08751792 25.53276173 -0.09323108 28.02734375 -0.09765625 C28.80963852 -0.10281754 29.59193329 -0.10797882 30.39793396 -0.11329651 C32.26567114 -0.11349226 34.13329204 -0.06199694 36 0 C36.495 0.495 36.495 0.495 37 1 C39.68544346 1.56274765 42.36253387 2.08061023 45.0625 2.5625 C45.82111328 2.70107422 46.57972656 2.83964844 47.36132812 2.98242188 C49.24024975 3.32511827 51.12004701 3.6630073 53 4 C53 4.66 53 5.32 53 6 C49.30876663 5.63087666 45.78974901 5.20678665 42.1953125 4.265625 C19.99308327 -1.48849798 -2.45592452 1.79198379 -23.15625 10.92578125 C-24.0946875 11.28027344 -25.033125 11.63476562 -26 12 C-26.66 11.67 -27.32 11.34 -28 11 C-24.3291659 7.77470249 -20.22508451 6.40085067 -15.6875 4.8125 C-14.95337891 4.53986328 -14.21925781 4.26722656 -13.46289062 3.98632812 C-8.76783224 2.32410248 -4.97678324 1.70415423 0 2 C0 1.34 0 0.68 0 0 Z " fill="#A94FD0" transform="translate(339,97)"/>
<path d="M0 0 C0 0.66 0 1.32 0 2 C-1.258125 2.226875 -2.51625 2.45375 -3.8125 2.6875 C-12.6591999 4.66270658 -20.52816407 8.97765745 -28 14 C-31 16 -31 16 -32.921875 16.9296875 C-42.51802166 21.87206379 -50.34300639 30.67875799 -57 39 C-57.66 38.67 -58.32 38.34 -59 38 C-44.53434088 21.94336314 -23.40799125 0 0 0 Z " fill="#411B7D" transform="translate(335,101)"/>
<path d="M0 0 C0 3.63787651 -0.67888836 4.13064655 -3.0625 6.75 C-4.02736328 7.81541016 -4.02736328 7.81541016 -5.01171875 8.90234375 C-6.76292609 10.74988469 -8.54985504 12.53864717 -10.375 14.3125 C-14.21879037 18.08703289 -17.55437038 22.23012052 -20.92578125 26.42578125 C-22.52035618 28.40473582 -24.14372211 30.33475646 -25.8125 32.25 C-27.82912666 34.7851878 -29.3457568 37.34654958 -30.88671875 40.1875 C-32.8776195 43.42882613 -35.44368375 46.19657318 -38 49 C-38 45.06910715 -36.20291776 43.01232255 -34 39.9375 C-33.58919189 39.35605225 -33.17838379 38.77460449 -32.75512695 38.17553711 C-29.03220456 32.95311427 -25.11325101 27.92146875 -21 23 C-20.5472168 22.45698242 -20.09443359 21.91396484 -19.62792969 21.35449219 C-13.39036962 13.89824051 -7.03809843 6.71818486 0 0 Z " fill="#7D37A5" transform="translate(82,74)"/>
<path d="M0 0 C0.72265625 1.546875 0.72265625 1.546875 1 4 C-0.0867206 6.55629669 -1.20633563 8.8447386 -2.5625 11.25 C-2.93093018 11.91805664 -3.29936035 12.58611328 -3.67895508 13.27441406 C-10.93444289 26.20872545 -10.93444289 26.20872545 -18 30 C-19.18424388 30.9791208 -20.34962063 31.98130553 -21.5 33 C-24.19305673 35.36079648 -26.85446681 37.26167903 -30 39 C-30.78375 39.515625 -31.5675 40.03125 -32.375 40.5625 C-37.05062801 43.12296296 -41.6728981 44.32285466 -47 44 C-44.15584037 42.10389358 -41.6727987 41.03569739 -38.5 39.8125 C-20.55185255 32.36110304 -8.22429451 19.93030131 -0.78515625 2.0859375 C-0.52605469 1.39757812 -0.26695312 0.70921875 0 0 Z " fill="#492795" transform="translate(422,221)"/>
<path d="M0 0 C0.66 0.33 1.32 0.66 2 1 C2.59765625 2.99609375 2.59765625 2.99609375 3.0625 5.4375 C3.7144301 8.82474047 3.7144301 8.82474047 5 12 C5.0784782 16.14250224 4.90229186 20.2786612 4.75805664 24.41894531 C4.68871956 26.46402926 4.63381703 28.50914221 4.58007812 30.5546875 C4.26459499 40.14160784 3.32929302 48.96334751 0 58 C-0.66 57.67 -1.32 57.34 -2 57 C-1.79503906 56.0821875 -1.59007812 55.164375 -1.37890625 54.21875 C-1.10949219 52.9915625 -0.84007812 51.764375 -0.5625 50.5 C-0.29566406 49.2934375 -0.02882813 48.086875 0.24609375 46.84375 C1.65687908 39.65093774 2.19319593 32.74822318 2.1875 25.4375 C2.18814453 24.57286133 2.18878906 23.70822266 2.18945312 22.81738281 C2.12674646 15.08451051 1.29322453 7.62078741 0 0 Z " fill="#B866DF" transform="translate(457,173)"/>
<path d="M0 0 C1.97265625 1.69921875 1.97265625 1.69921875 3 3 C-1.1340118 2.06308611 -4.99760343 0.53848309 -8.953125 -0.96484375 C-16.20334363 -3.42805905 -22.44383458 -4.31889524 -30.0625 -4.25 C-30.92166016 -4.25773438 -31.78082031 -4.26546875 -32.66601562 -4.2734375 C-37.86335148 -4.25755565 -42.05850138 -3.56892581 -47 -2 C-49.33215844 -1.92596322 -51.66860788 -1.90484114 -54 -2 C-39.53578857 -11.64280762 -14.7212283 -7.12653102 0 0 Z " fill="#B463D8" transform="translate(389,138)"/>
<path d="M0 0 C0.99 0 1.98 0 3 0 C0.9389178 8.07257195 -2.15441126 15.18589083 -7 22 C-7.639375 22.99 -8.27875 23.98 -8.9375 25 C-14.86486486 33.62162162 -14.86486486 33.62162162 -19 35 C-19 32 -19 32 -17.53125 30.44921875 C-16.52578125 29.57716797 -16.52578125 29.57716797 -15.5 28.6875 C-7.57562529 21.04463061 -2.36741668 10.70269626 0 0 Z " fill="#513986" transform="translate(244,380)"/>
<path d="M0 0 C5.47733017 5.47733017 5.39673698 17.12993892 6.08203125 24.5390625 C6 27 6 27 4 30 C3.60612212 32.32387947 3.26513915 34.65793749 3 37 C1.515 37.495 1.515 37.495 0 38 C0.33 36.88625 0.66 35.7725 1 34.625 C3.46409075 23.50139031 2.71075316 10.98823155 0 0 Z " fill="#C880EA" transform="translate(406,179)"/>
<path d="M0 0 C0.66 0.33 1.32 0.66 2 1 C-3.03506126 6.51459091 -8.37360853 11.23293461 -14.4375 15.5625 C-15.05254395 16.00384277 -15.66758789 16.44518555 -16.30126953 16.89990234 C-20.73402736 20 -20.73402736 20 -23 20 C-23 19.34 -23 18.68 -23 18 C-21.02 17.34 -19.04 16.68 -17 16 C-17 15.34 -17 14.68 -17 14 C-15.56640625 12.7734375 -15.56640625 12.7734375 -13.5625 11.375 C-8.74983232 7.89679295 -4.38357157 3.99797963 0 0 Z " fill="#5730A3" transform="translate(433,265)"/>
<path d="M0 0 C6.18781392 0.45196516 10.56520685 2.55640966 15.9375 5.5625 C16.71673828 5.98724609 17.49597656 6.41199219 18.29882812 6.84960938 C20.20449805 7.89012854 22.10300722 8.94374418 24 10 C24 10.66 24 11.32 24 12 C25.32 12.66 26.64 13.32 28 14 C24.02102938 14 22.37868331 12.48711233 19.0625 10.3125 C12.99027093 6.42046645 6.76390813 3.53494215 0 1 C0 0.67 0 0.34 0 0 Z " fill="#9C42C5" transform="translate(392,103)"/>
<path d="M0 0 C0.66 0 1.32 0 2 0 C4.51848704 5.23707305 5.62912984 9.79950522 6.1875 15.5625 C6.26935547 16.29146484 6.35121094 17.02042969 6.43554688 17.77148438 C7.63727514 28.99098103 7.63727514 28.99098103 5.5 32.375 C5.005 32.91125 4.51 33.4475 4 34 C4.05220703 32.15148437 4.05220703 32.15148437 4.10546875 30.265625 C4.29166954 20.72596994 4.06702788 12.15340963 1 3 C0.67 2.01 0.34 1.02 0 0 Z " fill="#392372" transform="translate(241,346)"/>
<path d="M0 0 C0.33 0 0.66 0 1 0 C0.25 7.625 0.25 7.625 -2 11 C-2 12.010625 -2 13.02125 -2 14.0625 C-2 15.031875 -2 16.00125 -2 17 C-2.66 17.66 -3.32 18.32 -4 19 C-4.64767793 21.57061311 -4.64767793 21.57061311 -5 24 C-5.66 24 -6.32 24 -7 24 C-6.46870624 18.02798909 -5.15389059 13.05383257 -2.9375 7.5 C-2.65583984 6.77296875 -2.37417969 6.0459375 -2.08398438 5.296875 C-1.39741552 3.52808745 -0.69986318 1.76356959 0 0 Z " fill="#432382" transform="translate(266,156)"/>
<path d="M0 0 C-2.7269181 1.46256659 -5.4569188 2.91928541 -8.1875 4.375 C-9.34088867 4.99375 -9.34088867 4.99375 -10.51757812 5.625 C-14.2827401 7.62877719 -17.98361075 9.53510452 -22 11 C-22 10.01 -22 9.02 -22 8 C-18.90352475 6.46312518 -15.79674718 4.94834718 -12.6875 3.4375 C-11.80642578 2.99986328 -10.92535156 2.56222656 -10.01757812 2.11132812 C-9.17001953 1.70205078 -8.32246094 1.29277344 -7.44921875 0.87109375 C-6.66893311 0.48880615 -5.88864746 0.10651855 -5.0847168 -0.28735352 C-3 -1 -3 -1 0 0 Z " fill="#7D27AA" transform="translate(165,22)"/>
<path d="M0 0 C2.88049117 1.30682801 4.9608743 2.70501003 7.19921875 4.93359375 C7.76833984 5.50013672 8.33746094 6.06667969 8.92382812 6.65039062 C9.50583984 7.24013672 10.08785156 7.82988281 10.6875 8.4375 C11.28111328 9.02337891 11.87472656 9.60925781 12.48632812 10.21289062 C13.05158203 10.78072266 13.61683594 11.34855469 14.19921875 11.93359375 C14.71315186 12.44978271 15.22708496 12.96597168 15.7565918 13.49780273 C17 15 17 15 18 18 C16 18 16 18 13.375 15.625 C11 13 11 13 11 11 C10.34 11 9.68 11 9 11 C7.31183067 9.35511706 5.64646685 7.68662458 4 6 C3.01 5.34 2.02 4.68 1 4 C0.3125 1.875 0.3125 1.875 0 0 Z " fill="#791DA7" transform="translate(452,71)"/>
<path d="M0 0 C-18.16211122 7.61262959 -18.16211122 7.61262959 -23 6 C-20.41767086 5.01811439 -17.83421317 4.03940411 -15.25 3.0625 C-14.15558594 2.64581055 -14.15558594 2.64581055 -13.0390625 2.22070312 C-12.33007812 1.95322266 -11.62109375 1.68574219 -10.890625 1.41015625 C-9.91657715 1.04096069 -9.91657715 1.04096069 -8.92285156 0.66430664 C-3.56262859 -1.18754286 -3.56262859 -1.18754286 0 0 Z " fill="#7D25AA" transform="translate(193,12)"/>
<path d="M0 0 C0 0.33 0 0.66 0 1 C-3.95706627 1.53078256 -7.91579444 2.0479381 -11.875 2.5625 C-13.56689453 2.78969727 -13.56689453 2.78969727 -15.29296875 3.02148438 C-16.90751953 3.2293457 -16.90751953 3.2293457 -18.5546875 3.44140625 C-20.04718018 3.63778687 -20.04718018 3.63778687 -21.56982422 3.83813477 C-24 4 -24 4 -26 3 C-23.87465633 0.87465633 -19.85087852 0.90425968 -16.9375 0.375 C-15.82858398 0.15457031 -15.82858398 0.15457031 -14.69726562 -0.0703125 C-9.49806051 -1.01644956 -5.21161966 -0.88733592 0 0 Z " fill="#51309D" transform="translate(379,297)"/>
<path d="M0 0 C0.33 0.99 0.66 1.98 1 3 C-0.328125 5.0078125 -0.328125 5.0078125 -2.25 7.125 C-2.87390625 7.82882812 -3.4978125 8.53265625 -4.140625 9.2578125 C-6 11 -6 11 -9 12 C-9 9 -9 9 -7.03125 6.73828125 C-5.77828125 5.53751953 -5.77828125 5.53751953 -4.5 4.3125 C-3.6646875 3.50425781 -2.829375 2.69601562 -1.96875 1.86328125 C-1.3190625 1.24839844 -0.669375 0.63351562 0 0 Z " fill="#48317A" transform="translate(234,403)"/>
<path d="M0 0 C3.27654325 2.67633563 4.60786726 6.19328012 6.1875 10 C6.46013672 10.6290625 6.73277344 11.258125 7.01367188 11.90625 C8.22496537 14.7720672 9 16.85703523 9 20 C8.34 20 7.68 20 7 20 C6.01811439 17.41767086 5.03940411 14.83421317 4.0625 12.25 C3.78470703 11.52039063 3.50691406 10.79078125 3.22070312 10.0390625 C2.95322266 9.33007812 2.68574219 8.62109375 2.41015625 7.890625 C2.16402588 7.24125977 1.91789551 6.59189453 1.66430664 5.92285156 C0.98874565 3.967424 0.47199954 2.01334243 0 0 Z " fill="#AD53D4" transform="translate(449,152)"/>
<path d="M0 0 C0.66 0 1.32 0 2 0 C0.47987323 5.40489519 -3.27385218 8.98492628 -7 13 C-7 9.19794574 -5.7999031 7.88843439 -3.625 4.8125 C-2.99851562 3.91144531 -2.37203125 3.01039062 -1.7265625 2.08203125 C-1.15679687 1.39496094 -0.58703125 0.70789063 0 0 Z " fill="#8442AB" transform="translate(51,110)"/>
<path d="M0 0 C3.37462715 0.54723683 5.08235 1.0549 8 3 C6.824375 3.680625 6.824375 3.680625 5.625 4.375 C2.96301969 5.88428742 2.96301969 5.88428742 1 8 C0.67 5.36 0.34 2.72 0 0 Z " fill="#A595BA" transform="translate(11,342)"/>
<path d="M0 0 C0.99 0.33 1.98 0.66 3 1 C0.03 3.64 -2.94 6.28 -6 9 C-6.33 8.01 -6.66 7.02 -7 6 C-5.90716423 4.96704564 -4.80029421 3.94892165 -3.6875 2.9375 C-3.07261719 2.36902344 -2.45773438 1.80054687 -1.82421875 1.21484375 C-0.92123047 0.61349609 -0.92123047 0.61349609 0 0 Z " fill="#8837B1" transform="translate(90,67)"/>
<path d="M0 0 C3.95906817 1.43308135 7.28718181 3.33141949 10.8125 5.625 C11.78832031 6.25664063 12.76414062 6.88828125 13.76953125 7.5390625 C14.50558594 8.02117188 15.24164063 8.50328125 16 9 C15.01 9.33 14.02 9.66 13 10 C10.1171875 8.41796875 10.1171875 8.41796875 6.875 6.1875 C5.79992187 5.45917969 4.72484375 4.73085938 3.6171875 3.98046875 C1 2 1 2 0 0 Z " fill="#7B22AB" transform="translate(403,35)"/>
<path d="M0 0 C0.66 0.33 1.32 0.66 2 1 C0.90902202 2.84121215 -0.19819251 4.67281256 -1.3125 6.5 C-2.23482422 8.03140625 -2.23482422 8.03140625 -3.17578125 9.59375 C-3.77777344 10.3878125 -4.37976563 11.181875 -5 12 C-5.99 12 -6.98 12 -8 12 C-7.54625 11.4225 -7.0925 10.845 -6.625 10.25 C-4.98867041 8.11161741 -4.98867041 8.11161741 -4 6 C-2.89206743 3.78413485 -1.52771521 1.94436481 0 0 Z " fill="#D899F7" transform="translate(417,229)"/>
<path d="M0 0 C0.33 0.66 0.66 1.32 1 2 C-0.25 4.5625 -0.25 4.5625 -2 7 C-2.99 7.33 -3.98 7.66 -5 8 C-6.21869929 10.50447516 -6.21869929 10.50447516 -7 13 C-7.66 12.67 -8.32 12.34 -9 12 C-7.68858144 10.18671738 -6.37583526 8.37439486 -5.0625 6.5625 C-3.96615234 5.04849609 -3.96615234 5.04849609 -2.84765625 3.50390625 C-1 1 -1 1 0 0 Z " fill="#36186B" transform="translate(323,162)"/>
<path d="M0 0 C0.66 0.33 1.32 0.66 2 1 C0.78192862 2.15762119 -0.45001235 3.3006583 -1.6875 4.4375 C-2.71423828 5.39462891 -2.71423828 5.39462891 -3.76171875 6.37109375 C-6.22289422 8.16221098 -8.00816574 8.62798558 -11 9 C-10.67 8.34 -10.34 7.68 -10 7 C-9.34 7 -8.68 7 -8 7 C-7.67 6.34 -7.34 5.68 -7 5 C-5.84332216 4.08464344 -4.65107082 3.21346712 -3.4375 2.375 C-2.79683594 1.92898437 -2.15617187 1.48296875 -1.49609375 1.0234375 C-1.00238281 0.68570313 -0.50867188 0.34796875 0 0 Z " fill="#E3AFFB" transform="translate(403,247)"/>
<path d="M0 0 C-1.33333333 0.66666667 -2.66666667 1.33333333 -4 2 C-4.969375 2.53625 -5.93875 3.0725 -6.9375 3.625 C-9.97317175 4.98795467 -11.73230026 5.28832645 -15 5 C-10.14488244 1.04397828 -6.28074033 -0.29212746 0 0 Z " fill="#C070E1" transform="translate(339,136)"/>
<path d="M0 0 C3.66172475 0.62678171 6.8818995 1.64451846 10.3125 3.0625 C11.19550781 3.42472656 12.07851563 3.78695313 12.98828125 4.16015625 C13.65214844 4.43730469 14.31601562 4.71445312 15 5 C11.43041489 6.1898617 9.96200589 5.71536834 6.375 4.75 C4.90160156 4.37101562 4.90160156 4.37101562 3.3984375 3.984375 C2.60695313 3.65953125 1.81546875 3.3346875 1 3 C0.67 2.01 0.34 1.02 0 0 Z " fill="#7B22AE" transform="translate(364,17)"/>
<path d="M0 0 C0.33 0 0.66 0 1 0 C1.19294408 4.82360189 0.75747614 8.49646738 -1 13 C-1.66 12.67 -2.32 12.34 -3 12 C-2.01 8.04 -1.02 4.08 0 0 Z " fill="#BC72E4" transform="translate(458,218)"/>
<path d="M0 0 C0.71484375 1.734375 0.71484375 1.734375 1 4 C-0.43359375 6.140625 -0.43359375 6.140625 -2.4375 8.25 C-3.09621094 8.95640625 -3.75492188 9.6628125 -4.43359375 10.390625 C-4.95050781 10.92171875 -5.46742188 11.4528125 -6 12 C-6 8.36804504 -5.04546845 7.25286089 -3 4.3125 C-2.443125 3.50425781 -1.88625 2.69601563 -1.3125 1.86328125 C-0.879375 1.24839844 -0.44625 0.63351563 0 0 Z " fill="#3D237B" transform="translate(247,214)"/>
<path d="M0 0 C0.33 0 0.66 0 1 0 C1.22384382 1.72722728 1.42839969 3.45696007 1.625 5.1875 C1.74101562 6.15042969 1.85703125 7.11335938 1.9765625 8.10546875 C2.00194942 11.24075323 1.34359283 13.19486535 0 16 C-0.33 16 -0.66 16 -1 16 C-0.67 10.72 -0.34 5.44 0 0 Z " fill="#442C7A" transform="translate(246,364)"/>
<path d="M0 0 C0.66 0.33 1.32 0.66 2 1 C-0.97 3.97 -3.94 6.94 -7 10 C-7.66 9.34 -8.32 8.68 -9 8 C-6.03 5.36 -3.06 2.72 0 0 Z " fill="#5D35A9" transform="translate(433,265)"/>
<path d="M0 0 C0.99 0.33 1.98 0.66 3 1 C0.36 3.97 -2.28 6.94 -5 10 C-5 6.60406522 -4.47834052 5.93380119 -2.5 3.3125 C-2.0359375 2.68988281 -1.571875 2.06726563 -1.09375 1.42578125 C-0.7328125 0.95527344 -0.371875 0.48476562 0 0 Z " fill="#C785E7" transform="translate(307,154)"/>
<path d="M0 0 C0.75 1.6875 0.75 1.6875 1 4 C-0.875 6.5625 -0.875 6.5625 -3 9 C-3.33 9.99 -3.66 10.98 -4 12 C-4.66 12 -5.32 12 -6 12 C-4.43358249 7.69235185 -2.31663844 3.93828536 0 0 Z " fill="#442184" transform="translate(274,142)"/>
<path d="M0 0 C0.66 0.99 1.32 1.98 2 3 C0.02 5.97 -1.96 8.94 -4 12 C-4.33 11.34 -4.66 10.68 -5 10 C-4.00390625 7.6171875 -4.00390625 7.6171875 -2.5625 4.875 C-1.85287109 3.50988281 -1.85287109 3.50988281 -1.12890625 2.1171875 C-0.75636719 1.41851562 -0.38382813 0.71984375 0 0 Z " fill="#8047A4" transform="translate(31,141)"/>
<path d="M0 0 C-0.33 1.32 -0.66 2.64 -1 4 C-3.31 3.34 -5.62 2.68 -8 2 C-6.14210462 -1.71579076 -3.44525918 -1.06921837 0 0 Z " fill="#D6C9E7" transform="translate(176,314)"/>
<path d="M0 0 C1 3 1 3 0.00390625 5.26171875 C-0.47175781 6.06222656 -0.94742188 6.86273438 -1.4375 7.6875 C-2.14712891 8.89986328 -2.14712891 8.89986328 -2.87109375 10.13671875 C-3.24363281 10.75160156 -3.61617187 11.36648437 -4 12 C-4.66 12 -5.32 12 -6 12 C-4.43358249 7.69235185 -2.31663844 3.93828536 0 0 Z " fill="#7A409E" transform="translate(38,129)"/>
<path d="M0 0 C0.66 0.33 1.32 0.66 2 1 C0.55609075 4.80666984 -1.34952803 6.26602582 -5 8 C-5.66 7.67 -6.32 7.34 -7 7 C-4.69 4.69 -2.38 2.38 0 0 Z " fill="#5732A1" transform="translate(409,243)"/>
<path d="M0 0 C0 3 0 3 -2.3125 5.6875 C-5 8 -5 8 -8 8 C-5.36 5.36 -2.72 2.72 0 0 Z " fill="#722C9A" transform="translate(82,74)"/>
<path d="M0 0 C4.15456665 2.07728332 5.11663488 2.93589633 7 7 C6.67 7.99 6.34 8.98 6 10 C4.02 6.7 2.04 3.4 0 0 Z " fill="#BD70E1" transform="translate(398,167)"/>
<path d="M0 0 C0.66 0.33 1.32 0.66 2 1 C-1.96 4.465 -1.96 4.465 -6 8 C-6.66 7.67 -7.32 7.34 -8 7 C-5.36 4.69 -2.72 2.38 0 0 Z " fill="#772AA2" transform="translate(99,59)"/>
<path d="M0 0 C0.75 1.6875 0.75 1.6875 1 4 C-0.8125 6.75 -0.8125 6.75 -3 9 C-3.66 9 -4.32 9 -5 9 C-3.7508258 5.54074837 -2.32472205 2.85306797 0 0 Z " fill="#362267" transform="translate(213,263)"/>
<path d="M0 0 C0.33 0 0.66 0 1 0 C1.75 2.75 1.75 2.75 2 6 C0.0625 8.375 0.0625 8.375 -2 10 C-1.54177532 6.53058454 -1.10868317 3.32604951 0 0 Z " fill="#CD82EC" transform="translate(454,231)"/>
</svg>
