<?xml version="1.0" encoding="utf-8" ?>
<svg baseProfile="full" height="200" version="1.1" width="200" xmlns="http://www.w3.org/2000/svg" xmlns:ev="http://www.w3.org/2001/xml-events" xmlns:xlink="http://www.w3.org/1999/xlink"><defs /><path d="M 89,46 L 74,55 L 63,72 L 62,92 L 68,110 L 63,113 L 54,113 L 54,118 L 66,123 L 55,128 L 54,134 L 58,136 L 74,135 L 69,142 L 71,149 L 85,145 L 98,133 L 116,147 L 126,149 L 128,143 L 122,136 L 123,134 L 138,136 L 144,132 L 142,128 L 131,123 L 140,120 L 144,115 L 142,113 L 133,113 L 128,109 L 135,92 L 133,68 L 127,59 L 114,48 L 102,45 Z" fill="#e754d4" /></svg>